<svg width="19" height="17" viewBox="0 0 19 17" fill="none" xmlns="http://www.w3.org/2000/svg">
<path fill-rule="evenodd" clip-rule="evenodd" d="M6.61321 0.569112C7.44491 0.759274 8.08363 1.37016 8.27296 2.15655C8.35968 2.51676 8.36024 2.73878 8.27516 3.09037C8.1111 3.76842 7.55511 4.45332 6.58021 5.17826C6.11324 5.52553 6.02085 5.53715 5.69024 5.29013C4.7188 4.56438 4.15499 3.93013 3.90819 3.28554C3.78758 2.97057 3.78828 2.28353 3.90955 1.97181C4.14167 1.37496 4.53575 0.953132 5.07917 0.719698C5.62166 0.486716 6.06322 0.443363 6.61321 0.569112ZM5.73903 1.62166C4.91432 1.83715 4.64717 2.75122 5.25364 3.28238C5.92138 3.86719 7.07258 3.52103 7.20163 2.69662C7.27105 2.25311 6.91607 1.75673 6.43738 1.6279C6.1446 1.54911 6.02089 1.54801 5.73903 1.62166ZM10.2976 3.45431C10.4875 3.50194 10.7542 3.77355 10.852 4.01905C10.8936 4.12366 10.9404 4.34728 10.9558 4.51593C10.9778 4.75659 11.005 4.83849 11.0818 4.89638C11.3086 5.06725 11.3261 5.06437 11.4761 4.83164C11.6505 4.56097 12.0149 4.26944 12.366 4.11972C12.6116 4.01499 12.6855 4.00477 13.2944 3.99097C13.895 3.97738 13.9737 3.98399 14.1502 4.06286C14.6438 4.2834 14.9761 5.04721 14.8587 5.69115C14.775 6.14993 14.4428 6.62221 14.086 6.78976C13.9256 6.86505 13.829 6.87679 13.418 6.87104C13.1538 6.86735 12.9375 6.87741 12.9375 6.89342C12.9375 6.90947 13.1033 7.27276 13.306 7.70075C13.5086 8.12874 13.9111 9.01464 14.2005 9.66946C14.5079 10.3652 14.7661 10.8899 14.8216 10.9319C14.8985 10.99 15.0076 11.0038 15.392 11.0044C16.1678 11.0056 16.8224 11.1694 17.4402 11.5168C17.7889 11.713 18.2251 12.0705 18.3705 12.2793C18.5583 12.5492 18.4525 12.9364 18.1544 13.0701C18.0824 13.1024 17.9128 13.142 17.7774 13.1581C17.642 13.1742 17.5313 13.1954 17.5313 13.2053C17.5313 13.2152 17.5652 13.2919 17.6066 13.3759C17.8079 13.7837 17.8738 14.3957 17.762 14.8206C17.6108 15.3949 17.0744 15.9814 16.4497 16.2552C15.9838 16.4594 15.6474 16.5209 15.1407 16.4941C14.3186 16.4507 13.6371 16.0944 13.1646 15.461C12.9036 15.1111 12.7907 14.7604 12.7894 14.2954C12.7885 13.9546 12.7799 13.9158 12.7106 13.9419C12.3582 14.0745 12.1603 14.0828 9.34138 14.0828H6.51566L6.51529 14.2367C6.51252 15.4407 5.47016 16.4247 4.12503 16.4931C3.37077 16.5315 2.73069 16.3186 2.19833 15.8523C1.71922 15.4328 1.45316 14.895 1.45316 14.3464V14.0935L0.958906 14.0743C0.414734 14.0531 0.305562 14.0122 0.1055 13.7548C0.0148901 13.6382 3.07362e-05 13.5655 3.07362e-05 13.2396C3.07362e-05 12.8009 0.0970624 12.305 0.260516 11.9081C0.397109 11.5765 0.398234 11.5412 0.281281 11.25C0.107562 10.8175 0.183594 10.4267 0.512047 10.0635C0.83736 9.70373 1.49989 9.55393 2.00989 9.7248L2.26199 9.80924L2.49256 9.7069C2.61941 9.65061 2.73505 9.57749 2.74949 9.54449C2.76397 9.51144 2.7305 9.39998 2.67509 9.29677C2.47527 8.92445 2.46505 8.56071 2.64594 8.25904C2.82416 7.96181 3.30978 7.69303 3.73836 7.6544C3.8608 7.64335 5.06155 7.66844 6.40667 7.71011L8.85238 7.78589L9.07733 7.90766C9.41872 8.09253 9.58194 8.35223 9.60191 8.74254C9.61658 9.02938 9.60552 9.07446 9.46002 9.3205C9.33538 9.53131 9.24107 9.62614 9.01086 9.77209C8.68171 9.98077 8.49735 10.2489 8.36165 10.7163C8.13379 11.501 8.35475 12.1102 8.96347 12.3758C9.20244 12.4801 9.22124 12.4817 10.259 12.4817C11.2986 12.4817 11.3147 12.4803 11.5127 12.3787C11.6675 12.2993 11.7458 12.2173 11.8559 12.0195C12.0992 11.5821 12.1626 11.297 12.159 10.6548C12.1555 10.0198 12.0837 9.68772 11.7193 8.62258C11.3714 7.60571 11.1262 6.30737 11.1843 5.78984C11.2041 5.61368 11.196 5.59886 11.0099 5.47048L10.8148 5.33586L10.7343 5.45172C10.6901 5.51539 10.5881 5.61598 10.5078 5.67522C9.77301 6.21668 8.96413 5.14706 9.3239 4.1097C9.43733 3.78258 9.67841 3.50592 9.88494 3.46593C9.95254 3.45283 10.0395 3.43645 10.0782 3.42956C10.1168 3.42262 10.2156 3.43379 10.2976 3.45431ZM9.91663 4.10675C9.8383 4.22354 9.82068 4.3192 9.82208 4.6198C9.82382 4.98846 9.88462 5.17354 10.0415 5.28758C10.2591 5.44577 10.4872 4.7623 10.3627 4.32491C10.2484 3.92315 10.0913 3.84634 9.91663 4.10675ZM13.822 4.83611C13.6322 5.25716 13.7046 6.26196 13.9246 6.26196C14.0306 6.26196 14.249 5.90352 14.3057 5.63663C14.3501 5.42774 14.346 5.33935 14.2816 5.11093C14.2003 4.82219 14.0353 4.54274 13.9678 4.57928C13.9459 4.59114 13.8803 4.70671 13.822 4.83611ZM3.4888 8.23149C3.21678 8.35022 3.09378 8.50828 3.09378 8.73913C3.09378 8.93085 3.1513 9.08177 3.29572 9.26889L3.39847 9.40203L6.04986 9.40232L8.70126 9.4026L8.82421 9.2897C9.13035 9.00869 9.12669 8.52983 8.81704 8.34636C8.71016 8.28306 8.44166 8.26623 6.60941 8.20797C3.61128 8.11268 3.76367 8.11153 3.4888 8.23149ZM1.15208 10.2402C0.910344 10.3643 0.749938 10.6058 0.750313 10.8451L0.750641 11.0242L0.946203 10.819C1.05378 10.7061 1.26945 10.5075 1.4255 10.3776L1.70928 10.1416H1.52675C1.41861 10.1416 1.26589 10.1818 1.15208 10.2402ZM14.8415 13.6747C14.4617 13.9026 14.3472 14.3692 14.5916 14.6927C14.8402 15.0217 15.3408 15.1246 15.7275 14.9261C16.2002 14.6835 16.2902 14.174 15.9247 13.8094C15.8425 13.7274 15.7116 13.635 15.6337 13.604C15.4251 13.521 15.0404 13.5554 14.8415 13.6747ZM3.14066 14.2927C3.14066 14.7038 3.45345 14.9904 3.93017 15.0161C4.14181 15.0275 4.23294 15.0113 4.38144 14.9357C4.69269 14.7774 4.88291 14.4437 4.80899 14.1857L4.7795 14.0828H3.96008H3.14066V14.2927Z" fill="#646464"/>
</svg>
