<svg width="16" height="14" viewBox="0 0 16 14" fill="none" xmlns="http://www.w3.org/2000/svg">
<path fill-rule="evenodd" clip-rule="evenodd" d="M7.84075 12.9025C6.39368 12.0119 5.04749 10.9638 3.82627 9.77678C2.96771 8.92196 2.31409 7.87985 1.91548 6.73026C1.19818 4.5002 2.03603 1.94722 4.38083 1.19168C5.61316 0.794957 6.95905 1.0217 7.99748 1.80098C9.0363 1.02265 10.3817 0.795985 11.6141 1.19168C13.9589 1.94722 14.8028 4.5002 14.0855 6.73026C13.6869 7.87985 13.0333 8.92196 12.1747 9.77678C10.9535 10.9638 9.6073 12.0119 8.16022 12.9025L8.0035 13L7.84075 12.9025Z" stroke="#181818" stroke-width="1.5" stroke-linecap="round" stroke-linejoin="round"/>
<path d="M10.4929 3.70201C11.2031 3.92888 11.7077 4.56648 11.7708 5.31667" stroke="#181818" stroke-width="1.5" stroke-linecap="round" stroke-linejoin="round"/>
</svg>
