<svg width="25" height="24" viewBox="0 0 25 24" fill="none" xmlns="http://www.w3.org/2000/svg">
<path fill-rule="evenodd" clip-rule="evenodd" d="M9.03474 0.0314495C8.00903 0.252395 7.27366 0.825374 6.70963 1.84311C6.1564 2.84143 5.75181 3.14885 4.75287 3.32976C4.04794 3.45742 3.66639 3.5995 3.19213 3.91087C2.73085 4.21371 2.41213 4.5697 2.15074 5.07401C1.84925 5.65564 1.79457 5.9259 1.82059 6.70619C1.87447 8.31844 1.86614 8.45457 1.69383 8.78375C1.60687 8.95 1.31503 9.32369 1.04536 9.61416C0.274328 10.4447 -0.0638617 11.2915 0.00988752 12.2068C0.0796735 13.0729 0.373234 13.6657 1.14783 14.505C1.38556 14.7626 1.64098 15.0976 1.71542 15.2495C1.86137 15.5472 1.86976 15.7145 1.81984 17.3297C1.80158 17.9198 1.81657 18.1008 1.9052 18.3605C2.35033 19.6644 3.21258 20.3669 4.74488 20.6745C5.8166 20.8895 6.13716 21.131 6.70027 22.1473C7.39342 23.3981 8.36267 24.0035 9.66655 24C10.3001 23.9983 10.5455 23.9346 11.34 23.5651C12.2812 23.1275 12.691 23.1234 13.6144 23.5419C14.5095 23.9476 14.6998 23.9968 15.3815 23.9984C15.8206 23.9995 16.0706 23.9709 16.3005 23.8935C17.2118 23.5866 17.8069 23.0747 18.3093 22.1652C18.8679 21.1541 19.2542 20.8602 20.2637 20.6779C20.9843 20.5478 21.4616 20.3644 21.9102 20.0453C22.3265 19.7491 22.669 19.3461 22.9015 18.8789C23.171 18.3375 23.224 18.0565 23.1988 17.301C23.1447 15.6817 23.1527 15.5537 23.3291 15.2164C23.4181 15.0463 23.6684 14.7201 23.8854 14.4914C24.696 13.6375 25 12.9591 25 12.0036C25 11.0467 24.7172 10.4136 23.8954 9.53026C23.1776 8.75878 23.0603 8.36998 23.1947 7.20667C23.2925 6.36028 23.2216 5.79973 22.9434 5.21873C22.4302 4.14688 21.6175 3.57379 20.2637 3.32919C19.2923 3.15372 18.8726 2.85111 18.3943 1.98147C17.8093 0.917807 17.2846 0.449859 16.3005 0.114032C16.062 0.0325947 15.8299 0.00722451 15.3528 0.0104316C14.6674 0.0150131 14.5502 0.0475421 13.4861 0.52912C13.0421 0.730078 12.9537 0.750065 12.5097 0.74995C12.0471 0.749893 11.9897 0.73529 11.4184 0.472252C11.0867 0.319514 10.699 0.157557 10.5568 0.112256C10.2405 0.0114624 9.34766 -0.0359565 9.03474 0.0314495ZM16.3117 1.38575C16.7243 1.59427 17.0404 1.94751 17.3642 2.5619C17.5674 2.94743 17.7603 3.2127 18.0506 3.50552C18.5881 4.04769 19.0448 4.27597 19.9763 4.46805C20.7981 4.63751 21.1165 4.77593 21.4505 5.10895C21.9886 5.64551 22.1192 6.18956 21.9863 7.34039C21.8443 8.56985 22.1107 9.3443 23.0037 10.298C23.6678 11.0073 23.7961 11.2834 23.7961 12.0036C23.7961 12.7148 23.6582 13.0218 23.0566 13.6496C22.5584 14.1695 22.2775 14.6043 22.0896 15.1463C21.9752 15.4763 21.9609 15.6114 21.9797 16.1843C22.0353 17.8797 22.0271 18.0193 21.853 18.3512C21.6522 18.7338 21.2878 19.1013 20.9453 19.2666C20.8006 19.3365 20.3645 19.4591 19.9763 19.5392C19.0252 19.7353 18.6266 19.9325 18.0791 20.4779C17.7546 20.8013 17.5759 21.0431 17.364 21.4453C17.0386 22.0632 16.7283 22.4084 16.2923 22.6374C16.0114 22.7848 15.9321 22.7989 15.3815 22.7989H14.7784L14.1466 22.5011C13.3944 22.1466 13.1549 22.0858 12.5097 22.0858C11.8645 22.0858 11.6249 22.1466 10.8727 22.5011L10.2409 22.7989H9.63783C9.0877 22.7989 9.0078 22.7847 8.72814 22.6379C8.28387 22.4045 7.98169 22.07 7.65797 21.453C7.45057 21.0577 7.26218 20.7977 6.96873 20.5017C6.43457 19.9628 5.97312 19.731 5.06096 19.5429C4.68256 19.4648 4.25121 19.3439 4.10239 19.2742C3.74674 19.1075 3.36662 18.7329 3.16691 18.3523C2.99254 18.0199 2.98128 17.832 3.03889 16.2129C3.0753 15.1883 2.82091 14.5692 2.00582 13.6986C1.35236 13.0007 1.2233 12.7211 1.2233 12.0036C1.2233 11.292 1.35225 11.0099 1.9917 10.3217C2.51546 9.75802 2.73895 9.40833 2.93004 8.85379C3.04009 8.53434 3.05549 8.38813 3.0386 7.82294C2.98409 5.99748 2.98404 5.99811 3.20086 5.5994C3.55984 4.93926 3.96667 4.68997 5.04895 4.4669C6.35461 4.19785 7.06069 3.67962 7.65625 2.55325C7.98255 1.93617 8.28507 1.602 8.72814 1.36932C9.0078 1.22248 9.0877 1.20833 9.63783 1.20833H10.2409L10.8727 1.50608C11.6249 1.86063 11.8645 1.92139 12.5097 1.92139C13.1486 1.92139 13.3907 1.86126 14.1327 1.51833C15.0446 1.09683 15.6652 1.05909 16.3117 1.38575ZM9.39648 5.58549C8.0652 6.00991 7.33076 7.37744 7.73638 8.67677C8.29558 10.4684 10.5186 11.0364 11.862 9.73087C12.2147 9.38823 12.4811 8.87252 12.5803 8.34083C12.7076 7.65829 12.4628 6.84049 11.9678 6.29431C11.3323 5.59328 10.2811 5.30344 9.39648 5.58549ZM10.4898 6.70865C11.0605 6.87766 11.4184 7.35551 11.4184 7.94859C11.4184 8.71583 10.8847 9.25468 10.1248 9.25468C9.36265 9.25468 8.81441 8.71577 8.81401 7.96612C8.81367 7.3369 9.22049 6.82394 9.83886 6.67383C10.1024 6.60986 10.168 6.61336 10.4898 6.70865ZM12.0937 11.5888L7.68497 15.9847V16.232C7.68497 16.5814 7.91851 16.8142 8.26888 16.8142H8.51695L12.9257 12.4184L17.3344 8.02253V7.77518C17.3344 7.42584 17.1009 7.19298 16.7505 7.19298H16.5024L12.0937 11.5888ZM14.3189 13.6307C13.0647 13.9411 12.229 15.1842 12.442 16.4226C12.7847 18.4158 15.1328 19.2251 16.6007 17.8561C18.038 16.5156 17.4016 14.087 15.4956 13.6391C15.0555 13.5357 14.7127 13.5333 14.3189 13.6307ZM15.3977 14.8297C16.4305 15.2613 16.4905 16.7105 15.4964 17.2126C15.1753 17.3748 14.8922 17.4031 14.56 17.3062C13.9627 17.1318 13.601 16.658 13.601 16.0498C13.601 15.5106 13.8472 15.0988 14.3047 14.873C14.5906 14.732 15.1141 14.7112 15.3977 14.8297Z" fill="#181818"/>
</svg>
