<svg width="28" height="19" viewBox="0 0 28 19" fill="none" xmlns="http://www.w3.org/2000/svg">
<path fill-rule="evenodd" clip-rule="evenodd" d="M13.3937 0.153998C13.2166 0.239861 12.9867 0.4093 12.8829 0.530594C12.6058 0.854527 12.3444 1.42322 12.2721 1.85995C12.2372 2.07078 12.2007 2.2489 12.191 2.25564C12.1813 2.26239 11.8626 2.33868 11.4827 2.42514C7.11173 3.41984 3.59843 7.06053 2.45713 11.7779C2.27534 12.5292 2.10526 13.5929 2.10427 13.9849C2.1039 14.1298 2.0863 14.35 2.06517 14.4743L2.02676 14.7002H1.13646C0.328747 14.7002 0.23463 14.7115 0.122235 14.8208C-0.00267572 14.9422 -0.0384266 15.1562 0.0457148 15.2787C0.144541 15.4226 0.383086 15.4836 0.847537 15.4836H1.33318L1.40964 15.8755C1.64161 17.0647 2.46599 18.0953 3.51497 18.5072L3.8708 18.647L13.8153 18.6631C20.7649 18.6743 23.8573 18.6595 24.0833 18.614C24.8754 18.4544 25.7295 17.8113 26.1605 17.0502C26.4011 16.6251 26.641 15.9331 26.641 15.6638V15.4952L27.2347 15.4743C27.7359 15.4567 27.8421 15.4352 27.9163 15.3365C28.0308 15.184 28.0277 15.0008 27.9077 14.8342C27.8154 14.706 27.7717 14.7002 26.8909 14.7002H25.9706L25.9291 14.173C25.5759 9.68248 23.3157 5.84976 19.7635 3.71786C18.7921 3.13489 17.2616 2.54156 16.2245 2.34603L15.8144 2.26872L15.7405 1.86627C15.595 1.07452 15.1648 0.42346 14.6093 0.154299C14.185 -0.0513525 13.8176 -0.051413 13.3937 0.153998ZM14.3513 0.897429C14.5551 1.0183 14.8905 1.60995 14.9514 1.95624L14.9833 2.137H14.0066H13.03L13.0855 1.8967C13.1785 1.49414 13.3495 1.18274 13.5903 0.977086C13.8553 0.750827 14.0667 0.728714 14.3513 0.897429ZM15.321 2.97919C20.1838 3.60862 24.1088 7.65471 24.967 12.9227C25.0317 13.3204 25.1037 13.8831 25.1267 14.173L25.1687 14.7002H14.0033H2.83787L2.87814 14.2333C3.04308 12.3189 3.4325 10.8757 4.20731 9.30739C5.43541 6.82162 7.22549 5.02197 9.5711 3.91484C10.6699 3.39622 11.8955 3.04577 13.0099 2.93171C13.5503 2.87634 14.7109 2.9002 15.321 2.97919ZM8.91024 6.01805C7.04383 7.2334 5.77396 9.00358 5.21062 11.1753C5.09271 11.6299 4.9551 12.5132 4.9551 12.8157C4.9551 12.9928 5.16291 13.1939 5.346 13.1939C5.64217 13.1939 5.70915 13.0738 5.80184 12.3767C6.12676 9.93308 7.33101 7.99846 9.35424 6.66977C9.60983 6.5019 9.83945 6.3353 9.86448 6.2995C9.94838 6.17941 9.913 5.92261 9.79856 5.82192C9.61132 5.65706 9.38938 5.70611 8.91024 6.01805ZM25.8193 15.7095C25.7254 16.36 25.2164 17.1652 24.6779 17.5153C24.0522 17.922 24.8491 17.8938 13.9958 17.8938C4.17255 17.8938 4.15365 17.8935 3.80903 17.7682C3.38504 17.6139 2.80094 17.1053 2.54598 16.6685C2.36369 16.3561 2.16691 15.7979 2.16691 15.5931C2.16691 15.4876 2.60224 15.4836 14.0094 15.4836H25.8518L25.8193 15.7095Z" fill="white"/>
</svg>
